<svg width="49" height="48" viewBox="0 0 49 48" fill="none" xmlns="http://www.w3.org/2000/svg">
<path d="M45.8507 0H3.14933C2.44669 0 1.77282 0.279125 1.27597 0.775972C0.779125 1.27282 0.5 1.94669 0.5 2.64933V45.3513C0.500177 46.0539 0.77938 46.7276 1.27621 47.2243C1.77303 47.721 2.4468 48 3.14933 48H26.138V29.412H19.8827V22.168H26.138V16.8253C26.138 10.6253 29.9247 7.25 35.4553 7.25C38.1047 7.25 40.3813 7.44667 41.0453 7.53533V14.0147L37.2093 14.0167C34.2013 14.0167 33.6193 15.446 33.6193 17.5433V22.1687H40.7927L39.8587 29.4127H33.6193V48H45.8513C46.5539 47.9998 47.2276 47.7206 47.7243 47.2238C48.221 46.727 48.5 46.0532 48.5 45.3507V2.64933C48.5 1.94669 48.2209 1.27282 47.724 0.775972C47.2272 0.279125 46.5533 0 45.8507 0Z" fill="url(#paint0_linear)"/>
<defs>
<linearGradient id="paint0_linear" x1="24.5" y1="0" x2="24.5" y2="48" gradientUnits="userSpaceOnUse">
<stop stop-color="#30174F"/>
<stop offset="1" stop-color="#002A73"/>
</linearGradient>
</defs>
</svg>
