<svg width="49" height="48" viewBox="0 0 49 48" fill="none" xmlns="http://www.w3.org/2000/svg">
<path d="M48.3454 14.1674C48.3185 12.152 47.9406 10.1566 47.2286 8.27054C46.6111 6.67964 45.668 5.23481 44.4596 4.02838C43.2511 2.82194 41.8039 1.88043 40.2104 1.264C38.3454 0.565093 36.3752 0.187182 34.3836 0.146358C31.8194 0.0319328 31.0064 0 24.4973 0C17.9882 0 17.1539 1.78437e-07 14.6084 0.146358C12.6177 0.187482 10.6484 0.565388 8.78432 1.264C7.19052 1.88 5.74306 2.82136 4.53456 4.02785C3.32606 5.23434 2.38313 6.67939 1.7661 8.27054C1.06463 10.131 0.686912 12.0974 0.649267 14.0849C0.534651 16.6475 0.5 17.4591 0.5 23.9574C0.5 30.4557 0.5 31.286 0.649267 33.8299C0.689249 35.8204 1.06508 37.7842 1.7661 39.6496C2.38417 41.2403 3.3278 42.6848 4.5367 43.8907C5.7456 45.0967 7.1932 46.0377 8.78698 46.6535C10.646 47.3805 12.6156 47.7855 14.6111 47.851C17.1779 47.9654 17.9909 48 24.5 48C31.0091 48 31.8434 48 34.3889 47.851C36.3805 47.8118 38.3508 47.4348 40.2157 46.736C41.8088 46.1189 43.2557 45.1771 44.464 43.9708C45.6724 42.7644 46.6157 41.32 47.2339 39.7295C47.9349 37.8667 48.3107 35.9029 48.3507 33.9097C48.4653 31.3498 48.5 30.5382 48.5 24.0373C48.4947 17.539 48.4947 16.7141 48.3454 14.1674ZM24.4813 36.2461C17.6737 36.2461 12.1588 30.7404 12.1588 23.9441C12.1588 17.1478 17.6737 11.6421 24.4813 11.6421C27.7495 11.6421 30.8838 12.9382 33.1947 15.2453C35.5056 17.5524 36.8039 20.6814 36.8039 23.9441C36.8039 27.2068 35.5056 30.3359 33.1947 32.643C30.8838 34.95 27.7495 36.2461 24.4813 36.2461ZM37.2943 14.0557C35.703 14.0557 34.4209 12.773 34.4209 11.1871C34.4209 10.8105 34.4952 10.4377 34.6395 10.0898C34.7839 9.74192 34.9954 9.42583 35.2621 9.15958C35.5288 8.89333 35.8454 8.68212 36.1939 8.53803C36.5423 8.39394 36.9158 8.31977 37.293 8.31977C37.6701 8.31977 38.0436 8.39394 38.3921 8.53803C38.7405 8.68212 39.0571 8.89333 39.3238 9.15958C39.5905 9.42583 39.8021 9.74192 39.9464 10.0898C40.0908 10.4377 40.165 10.8105 40.165 11.1871C40.165 12.773 38.8803 14.0557 37.2943 14.0557Z" fill="url(#paint0_linear)"/>
<path d="M24.4812 31.9354C28.902 31.9354 32.4857 28.3576 32.4857 23.9443C32.4857 19.5309 28.902 15.9531 24.4812 15.9531C20.0605 15.9531 16.4768 19.5309 16.4768 23.9443C16.4768 28.3576 20.0605 31.9354 24.4812 31.9354Z" fill="url(#paint1_linear)"/>
<defs>
<linearGradient id="paint0_linear" x1="24.5" y1="0" x2="24.5" y2="48" gradientUnits="userSpaceOnUse">
<stop stop-color="#30174F"/>
<stop offset="1" stop-color="#002A73"/>
</linearGradient>
<linearGradient id="paint1_linear" x1="24.4812" y1="15.9531" x2="24.4812" y2="31.9354" gradientUnits="userSpaceOnUse">
<stop stop-color="#30174F"/>
<stop offset="1" stop-color="#002A73"/>
</linearGradient>
</defs>
</svg>
